<?xml version="1.0" encoding="utf-8"?>
<!-- Generator: Adobe Illustrator 27.0.0, SVG Export Plug-In . SVG Version: 6.00 Build 0)  -->
<svg version="1.1" id="Layer_1" xmlns="http://www.w3.org/2000/svg" xmlns:xlink="http://www.w3.org/1999/xlink" x="0px" y="0px"
	 viewBox="0 0 235 244" style="enable-background:new 0 0 235 244;" xml:space="preserve">
<style type="text/css">
	.st0{fill:#FFFFFF;}
	.st1{fill:#1462ED;}
	.st2{fill:none;stroke:#000000;stroke-width:7;stroke-miterlimit:10;}
	.st3{fill:#FCFAFA;}
</style>
<path class="st0" d="M211.5,240.5h-188c-11,0-20-9-20-20v-167c0-11,9-20,20-20h188c11,0,20,9,20,20v167
	C231.5,231.5,222.5,240.5,211.5,240.5z"/>
<path class="st1" d="M231.5,87.7H3.5V53.5c0-11,9-20,20-20h188c11,0,20,9,20,20V87.7z"/>
<path class="st2" d="M211.5,240.5h-188c-11,0-20-9-20-20v-167c0-11,9-20,20-20h188c11,0,20,9,20,20v167
	C231.5,231.5,222.5,240.5,211.5,240.5z"/>
<line class="st2" x1="39.5" y1="67" x2="39.5" y2="0"/>
<line class="st2" x1="195.5" y1="67" x2="195.5" y2="0"/>
<g>
	<path class="st1" d="M201,218H34c-3.3,0-6-2.7-6-6v-69c0-3.3,2.7-6,6-6h167c3.3,0,6,2.7,6,6v69C207,215.3,204.3,218,201,218z"/>
	<g>
		<path class="st3" d="M54.3,186.2v-11.5h-3.2v-3h3.2V161h3.5v10.8h5.8v3h-5.8v11.6c0,2.8,0.9,3.6,2.4,3.6c1.4,0,2.2-0.6,2.8-1.2
			l1.9,2.2c-0.9,0.9-2.5,2-5.1,2C56.7,192.9,54.3,191.1,54.3,186.2z"/>
		<path class="st3" d="M69.2,163.3c0-1.4,1.2-2.5,2.5-2.5c1.3,0,2.5,1.1,2.5,2.5c0,1.5-1.2,2.5-2.5,2.5
			C70.4,165.8,69.2,164.8,69.2,163.3z M70,171.8h3.5v20.7H70V171.8z"/>
		<path class="st3" d="M79.7,182.1c0-6,4.7-10.8,10.8-10.8c3.7,0,6.2,1.4,8.2,3.7l-2.5,2.1c-1.2-1.7-3.1-2.7-5.7-2.7
			c-4.4,0-7.2,3.3-7.2,7.7s2.8,7.7,7.2,7.7c2.8,0,4.7-1.2,6-2.7l2.4,2c-1.9,2.4-4.5,3.7-8.3,3.7C84.3,192.9,79.7,188.2,79.7,182.1z"
			/>
		<path class="st3" d="M107.8,192.5h-3.5v-36.1h3.5v23.2c0,1.1-0.1,2.1-0.2,3l9.9-10.7h4.1l-8,8.7l9.2,12h-4.2l-7.5-9.7l-3.2,3.4
			V192.5z"/>
		<path class="st3" d="M136.4,189.9c3.1,0,5.2-1.2,6.6-2.8l2.2,2.1c-1.9,2.1-4.7,3.6-8.7,3.6c-6.8,0-11.2-4.7-11.2-10.8
			s4.7-10.8,10.7-10.8c6.7,0,10.7,5.1,10.4,12h-17.6C129.1,187.2,131.8,189.9,136.4,189.9z M142.8,180.6c-0.3-3.5-2.5-6.4-6.9-6.4
			c-3.9,0-6.6,2.6-7.2,6.4H142.8z"/>
		<path class="st3" d="M153.2,186.2v-11.5H150v-3h3.2V161h3.5v10.8h5.8v3h-5.8v11.6c0,2.8,0.9,3.6,2.4,3.6c1.4,0,2.2-0.6,2.8-1.2
			l1.9,2.2c-0.9,0.9-2.5,2-5.1,2C155.6,192.9,153.2,191.1,153.2,186.2z"/>
		<path class="st3" d="M166.9,188.1l2.7-1.5c1.2,2,3,3.5,6,3.5c2.8,0,4.4-1.2,4.4-3.1c0-2.2-1.8-2.8-5.4-3.8c-3.2-1-6.2-2.2-6.2-6.2
			c0-3.6,3-5.7,6.8-5.7c3.2,0,5.4,1.3,6.9,3.4l-2.4,1.8c-1.1-1.4-2.5-2.3-4.5-2.3c-2.2,0-3.6,1-3.6,2.7c0,1.9,1.2,2.5,4.9,3.5
			c3.5,1,6.9,2.4,6.9,6.4c0,3.5-2.4,6.2-7.6,6.2C171.2,192.9,168.3,190.7,166.9,188.1z"/>
	</g>
</g>
</svg>
